<?xml version="1.0" encoding="UTF-8" standalone="no"?>
<!DOCTYPE svg PUBLIC "-//W3C//DTD SVG 20010904//EN"
              "http://www.w3.org/TR/2001/REC-SVG-20010904/DTD/svg10.dtd">

<svg xmlns="http://www.w3.org/2000/svg"
     width="2.66667in" height="2.66667in"
     viewBox="0 0 240 240">
  <path id="Selection #1"
        fill="currentcolor" stroke="none" stroke-width="1"
        d="M 129.00,11.00
           C 129.00,11.00 122.00,51.00 122.00,51.00
             122.00,51.00 162.00,51.00 162.00,51.00
             162.00,51.00 169.00,11.00 169.00,11.00
             169.00,11.00 209.00,11.00 209.00,11.00
             209.00,11.00 202.00,51.00 202.00,51.00
             202.00,51.00 240.00,51.00 240.00,51.00
             240.00,73.63 237.66,70.31 235.00,90.00
             235.00,90.00 195.00,90.00 195.00,90.00
             195.00,90.00 188.00,131.00 188.00,131.00
             188.00,131.00 228.00,131.00 228.00,131.00
             228.00,131.00 221.00,170.00 221.00,170.00
             221.00,170.00 181.00,170.00 181.00,170.00
             181.00,170.00 174.00,210.00 174.00,210.00
             174.00,210.00 134.00,210.00 134.00,210.00
             134.00,210.00 141.00,170.00 141.00,170.00
             141.00,170.00 101.00,170.00 101.00,170.00
             101.00,170.00 94.00,210.00 94.00,210.00
             94.00,210.00 54.00,210.00 54.00,210.00
             54.00,210.00 61.00,170.00 61.00,170.00
             61.00,170.00 21.00,170.00 21.00,170.00
             21.00,170.00 28.00,131.00 28.00,131.00
             28.00,131.00 68.00,131.00 68.00,131.00
             68.00,131.00 75.00,90.00 75.00,90.00
             75.00,90.00 35.00,90.00 35.00,90.00
             35.00,90.00 42.00,51.00 42.00,51.00
             42.00,51.00 82.00,51.00 82.00,51.00
             82.00,51.00 89.00,11.00 89.00,11.00
             89.00,11.00 129.00,11.00 129.00,11.00 Z
           M 115.00,90.00
           C 115.00,90.00 108.00,131.00 108.00,131.00
             108.00,131.00 148.00,131.00 148.00,131.00
             148.00,131.00 155.00,90.00 155.00,90.00
             155.00,90.00 115.00,90.00 115.00,90.00 Z" />
</svg>
