<?xml version="1.0" encoding="UTF-8" standalone="no"?>
<!DOCTYPE svg PUBLIC "-//W3C//DTD SVG 20010904//EN"
              "http://www.w3.org/TR/2001/REC-SVG-20010904/DTD/svg10.dtd">

<svg xmlns="http://www.w3.org/2000/svg"
     width="3.88889in" height="3.88889in"
     viewBox="0 0 280 280">
  <path id="Selection"
        fill="#6D0707" stroke="#ffffff" stroke-width="1"
        d="M 67.00,12.55
           C 67.00,12.55 93.00,27.45 93.00,27.45
             93.00,27.45 105.00,35.54 105.00,35.54
             105.00,35.54 129.00,49.55 129.00,49.55
             129.00,49.55 148.00,60.46 148.00,60.46
             148.00,60.46 161.00,69.14 161.00,69.14
             161.00,69.14 201.00,92.32 201.00,92.32
             201.00,92.32 209.00,97.76 209.00,97.76
             209.00,97.76 230.00,110.14 230.00,110.14
             242.03,117.19 261.24,123.98 259.81,141.00
             258.55,156.07 244.53,162.73 233.00,169.28
             233.00,169.28 215.00,179.68 215.00,179.68
             215.00,179.68 180.00,201.14 180.00,201.14
             180.00,201.14 155.00,215.45 155.00,215.45
             155.00,215.45 143.00,223.54 143.00,223.54
             143.00,223.54 117.00,238.45 117.00,238.45
             117.00,238.45 89.00,255.72 89.00,255.72
             89.00,255.72 59.00,273.15 59.00,273.15
             52.92,276.62 47.37,280.43 40.00,279.81
             25.23,278.57 20.02,266.03 20.00,253.00
             20.00,253.00 20.00,62.00 20.00,62.00
             20.00,62.00 20.00,33.00 20.00,33.00
             20.00,18.12 18.94,4.77 37.00,0.47
             48.44,-1.03 57.72,6.99 67.00,12.55 Z
           M 165.00,118.45
           C 165.00,118.45 139.00,103.55 139.00,103.55
             139.00,103.55 127.00,95.46 127.00,95.46
             127.00,95.46 97.00,78.00 97.00,78.00
             97.00,78.00 84.00,70.54 84.00,70.54
             76.45,65.88 69.60,59.72 61.00,57.00
             61.00,57.00 61.00,224.00 61.00,224.00
             61.00,224.00 83.00,211.15 83.00,211.15
             83.00,211.15 122.00,188.54 122.00,188.54
             122.00,188.54 133.00,181.06 133.00,181.06
             133.00,181.06 160.00,165.55 160.00,165.55
             160.00,165.55 181.00,152.32 181.00,152.32
             181.00,152.32 201.00,140.00 201.00,140.00
             201.00,140.00 165.00,118.45 165.00,118.45 Z" />
</svg>
