<?xml version="1.0" encoding="UTF-8" standalone="no"?>
<!DOCTYPE svg PUBLIC "-//W3C//DTD SVG 20010904//EN"
              "http://www.w3.org/TR/2001/REC-SVG-20010904/DTD/svg10.dtd">

<svg xmlns="http://www.w3.org/2000/svg"
     width="5.55556in" height="5.55556in"
     viewBox="0 0 400 400">
  <path id="Selection"
        fill="currentColor" stroke="currentColor" stroke-width="1"
        d="M 127.00,72.55
           C 127.00,72.55 153.00,87.45 153.00,87.45
             153.00,87.45 165.00,95.54 165.00,95.54
             165.00,95.54 189.00,109.55 189.00,109.55
             189.00,109.55 208.00,120.46 208.00,120.46
             208.00,120.46 221.00,129.14 221.00,129.14
             221.00,129.14 261.00,152.32 261.00,152.32
             261.00,152.32 269.00,157.76 269.00,157.76
             269.00,157.76 290.00,170.14 290.00,170.14
             302.03,177.19 321.24,183.98 319.81,201.00
             318.55,216.07 304.53,222.73 293.00,229.28
             293.00,229.28 275.00,239.68 275.00,239.68
             275.00,239.68 240.00,261.14 240.00,261.14
             240.00,261.14 215.00,275.45 215.00,275.45
             215.00,275.45 203.00,283.54 203.00,283.54
             203.00,283.54 177.00,298.45 177.00,298.45
             177.00,298.45 149.00,315.72 149.00,315.72
             149.00,315.72 119.00,333.15 119.00,333.15
             112.92,336.62 107.37,340.43 100.00,339.81
             85.23,338.57 80.02,326.03 80.00,313.00
             80.00,313.00 80.00,122.00 80.00,122.00
             80.00,122.00 80.00,93.00 80.00,93.00
             80.00,78.12 78.94,64.77 97.00,60.47
             108.44,58.97 117.72,66.99 127.00,72.55 Z
           M 225.00,178.45
           C 225.00,178.45 199.00,163.55 199.00,163.55
             199.00,163.55 187.00,155.46 187.00,155.46
             187.00,155.46 157.00,138.00 157.00,138.00
             157.00,138.00 144.00,130.54 144.00,130.54
             136.45,125.88 129.60,119.72 121.00,117.00
             121.00,117.00 121.00,284.00 121.00,284.00
             121.00,284.00 143.00,271.15 143.00,271.15
             143.00,271.15 182.00,248.54 182.00,248.54
             182.00,248.54 193.00,241.06 193.00,241.06
             193.00,241.06 220.00,225.55 220.00,225.55
             220.00,225.55 241.00,212.32 241.00,212.32
             241.00,212.32 261.00,200.00 261.00,200.00
             261.00,200.00 225.00,178.45 225.00,178.45 Z" />
</svg>
